PathFileType	4	(X/Y/Z)	/Users/niels/Desktop/University/Third Semester/Perception and Action/Exam/Gymnastics Motion Tracking/Code for Gym Tracking/Analyzed Data/Webcam_Backflip/id8_2_trajectory_Sports2D/id8_2_trajectory_Sports2D_px_person00.trc
DataRate	CameraRate	NumFrames	NumMarkers	Units	OrigDataRate	OrigDataStartFrame	OrigNumFrames
29.714285714285715	29.714285714285715	8	22	m	29.714285714285715	13	105
Frame#	Time	Hip			RHip			RKnee			RAnkle			RBigToe			RSmallToe			RHeel			LHip			LKnee			LAnkle			LBigToe			LSmallToe			LHeel			Neck			Head			Nose			RShoulder			RElbow			RWrist			LShoulder			LElbow			LWrist		
		X1	Y1	Z1	X2	Y2	Z2	X3	Y3	Z3	X4	Y4	Z4	X5	Y5	Z5	X6	Y6	Z6	X7	Y7	Z7	X8	Y8	Z8	X9	Y9	Z9	X10	Y10	Z10	X11	Y11	Z11	X12	Y12	Z12	X13	Y13	Z13	X14	Y14	Z14	X15	Y15	Z15	X16	Y16	Z16	X17	Y17	Z17	X18	Y18	Z18	X19	Y19	Z19	X20	Y20	Z20	X21	Y21	Z21	X22	Y22	Z22
13	0.4375	0.9888647876576964	-0.36557943700172546	0.0	0.9979845720956507	-0.36627577865131977	0.0	0.9786010141236949	-0.6020194288280836	0.0	0.9650855637344565	-0.8068479664206589	0.0	1.0128197125474137	-0.8934618530562909	0.0	0.998988124482204	-0.8938111258998255	0.0	0.945508331185973	-0.8343771037155583	0.0	0.9682207897984518	-0.3642123167558867	0.0	0.9735592891512537	-0.5928561774401393	0.0	0.9615073048255651	-0.7983886618277177	0.0	1.0154400720694166	-0.8836014313654625	0.0	0.9997913957149628	-0.8683978525274765	0.0	0.9402516670928953	-0.825320778409773	0.0	1.070090656289648	-0.04015262226961395	0.0	1.138126472723957	0.011123475965159392	0.0	1.1471433930925836	-0.04321024006670378	0.0	1.0469995067132771	-0.05158378382498925	0.0	1.1331303206836378	-0.013006125299835096	0.0	1.155295450923974	0.004221966935313839	0.0	1.0249773119357943	-0.06506141542255868	0.0	1.091867432140911	-0.14522278091587873	0.0	1.1395081795502222	-0.03519960860014596	0.0
14	0.47115384615384615	0.9928841898636613	-0.3564467928904965	0.0	1.0041643332168066	-0.3569666089677436	0.0	0.9812087157494667	-0.5941775192352389	0.0	0.9646995832087877	-0.7995040693061745	0.0	1.011770177408606	-0.8881248147990545	0.0	0.998662185033082	-0.888140947909637	0.0	0.9450871396096251	-0.826571042876573	0.0	0.9713396931467189	-0.3553684936838343	0.0	0.9759436440611059	-0.5849618371300971	0.0	0.9613859508095892	-0.790862479160836	0.0	1.013487060040482	-0.8795030418604723	0.0	0.998266946437263	-0.8642304471475204	0.0	0.9405052428535919	-0.8178417708727023	0.0	1.0683133456060936	-0.030435928843352365	0.0	1.134893158729845	0.01759038634731995	0.0	1.145949865160492	-0.03502451106254541	0.0	1.0457039967428785	-0.041677535275042345	0.0	1.1268524386875016	-0.006688268945486349	0.0	1.1467926971531934	0.006603741451344434	0.0	1.0201669372745832	-0.05548268440173502	0.0	1.082321420406965	-0.15092136247555885	0.0	1.1309041145723329	-0.029469066720678633	0.0
15	0.5048076923076923	0.9964168141033456	-0.3551249471504848	0.0	1.0092065684060265	-0.35586719334278993	0.0	0.9842848533854025	-0.5953067356836637	0.0	0.9662322874887934	-0.8014356971030899	0.0	1.0137852595393164	-0.8905029181559211	0.0	1.001348133011935	-0.8905876520050059	0.0	0.9468891241056652	-0.8286521745683257	0.0	0.97476289876398	-0.3545495312933308	0.0	0.9788208765685255	-0.5858736105505238	0.0	0.962966498576858	-0.7924483435186607	0.0	1.0146118938580366	-0.8830298823255078	0.0	1.000096982891044	-0.8681742405240602	0.0	0.9424830971164414	-0.8197125698800775	0.0	1.0661577553602173	-0.02816248900007276	0.0	1.131583830380205	0.01912843223375494	0.0	1.1442818168243796	-0.03256990180003034	0.0	1.045266920367667	-0.039566398568100083	0.0	1.1265137388777486	-0.004501903716631135	0.0	1.1444298111251276	0.00836331876456523	0.0	1.0140377141881218	-0.053117737982434764	0.0	1.0775105059511225	-0.15780069023582755	0.0	1.12806349960343	-0.02510114393724021	0.0
16	0.5384615384615384	0.9992391414180422	-0.36218945690412985	0.0	1.0127114829937	-0.36356530966285394	0.0	0.987662182867727	-0.6052505531871328	0.0	0.9697175531129829	-0.8126718712285302	0.0	1.0193467663609233	-0.9004699553580692	0.0	1.0072424707339747	-0.9010091689725384	0.0	0.9506494171230829	-0.840369442643679	0.0	0.978268521142012	-0.36214588620555116	0.0	0.9819796882749566	-0.5956566699088109	0.0	0.9662598233157664	-0.8032699641447336	0.0	1.0193286962524013	-0.8938066146846809	0.0	1.0057022658782917	-0.8796883419029845	0.0	0.9459594950975508	-0.8307320471769603	0.0	1.0640068681999468	-0.033468321216333204	0.0	1.1285318663971957	0.015853846009416278	0.0	1.1423923798614637	-0.0357420082619357	0.0	1.0459304802827831	-0.04534904136691642	0.0	1.1317460692068118	-0.006112139256127975	0.0	1.148470619800092	0.010040812591848204	0.0	1.0084213291660915	-0.05818778483343653	0.0	1.0783933158647823	-0.16303937240726438	0.0	1.1314073320129485	-0.021832890072003328	0.0
17	0.5721153846153846	1.0012713465252039	-0.37755714602954726	0.0	1.014745569471472	-0.379905170768364	0.0	0.9916668656404241	-0.6228591522951543	0.0	0.974645024546932	-0.8321651968472892	0.0	1.0281479425238726	-0.9168975252644881	0.0	1.015787005553488	-0.9182390772996741	0.0	0.9555427482043015	-0.8602648830464127	0.0	0.9815558057894492	-0.3779938309021077	0.0	0.9857368991738993	-0.6132837514332513	0.0	0.970789064138557	-0.8221599028081926	0.0	1.027419992275472	-0.9101547310808064	0.0	1.014632852507612	-0.8968905576792978	0.0	0.9501917389990249	-0.849514255698952	0.0	1.0617478704957433	-0.04624041744715507	0.0	1.1248840785787415	0.008078950269558755	0.0	1.1400820066113082	-0.04436463664374587	0.0	1.047531850284899	-0.05956121396956476	0.0	1.1412904514837392	-0.013494856381482108	0.0	1.159474803208675	0.01037396516561733	0.0	1.0040868844970359	-0.07093946075380289	0.0	1.0859852553132563	-0.1626190672626483	0.0	1.1418460757142643	-0.020640260662176866	0.0
18	0.6057692307692307	1.0025165341662199	-0.40009774493680783	0.0	1.015610249231636	-0.40373078210391966	0.0	0.9970488166024719	-0.64620603874191	0.0	0.9800232855574006	-0.8578068613346728	0.0	1.0391489620531278	-0.9377780892445412	0.0	1.025850414431455	-0.9402132959536152	0.0	0.9603875638391329	-0.8859570431978051	0.0	0.9842717264477104	-0.4011055690633519	0.0	0.9908361438634887	-0.6368107882717862	0.0	0.9757776076898667	-0.8468807207539348	0.0	1.0379713876375183	-0.9295210402059731	0.0	1.0256575272516357	-0.9170621347340638	0.0	0.9541769496275957	-0.8737893084959636	0.0	1.0590917187353457	-0.06621908916707596	0.0	1.1198628998401845	-0.004096572795348212	0.0	1.1371231240289248	-0.05877654962677765	0.0	1.049663528827065	-0.08258512297871819	0.0	1.1530593384571008	-0.03015111228570829	0.0	1.1774143254989775	0.005640491042932133	0.0	1.0007855448040546	-0.09146384368745335	0.0	1.099392044907123	-0.1565612426190307	0.0	1.1596258184367763	-0.02436888425283463	0.0
19	0.6394230769230769	1.0030003878884657	-0.4277620968435538	0.0	1.0153902801977635	-0.4329255690622424	0.0	1.0047653170467998	-0.6728263207647815	0.0	0.9845942128381768	-0.8866399755584705	0.0	1.0507899520330388	-0.9602006539688988	0.0	1.0360165515238389	-0.9639176181185861	0.0	0.9639494165911233	-0.9145034729061543	0.0	0.9862531280785908	-0.42964001666122614	0.0	0.9982760715892877	-0.6637221569372778	0.0	0.9803920507131526	-0.8745566687015327	0.0	1.0494292200923416	-0.9489970061424436	0.0	1.0371509918296633	-0.9373745236167081	0.0	0.9569763038438776	-0.9005912558199197	0.0	1.056057062937703	-0.09285492675780865	0.0	1.1138260868461132	-0.02088703324933198	0.0	1.1337426673709552	-0.07954983044546222	0.0	1.0515780438923115	-0.11389868018962543	0.0	1.1644817970303287	-0.059294365178067625	0.0	1.2008311379077237	-0.009756996769298051	0.0	0.9980744059186826	-0.119391227897459	0.0	1.1152337450203533	-0.1521065078857679	0.0	1.1833304775216789	-0.03777935651855859	0.0
20	0.673076923076923	1.0026291744873699	-0.4580689386950458	0.0	1.0137947122929578	-0.4647434473989273	0.0	1.0155204936538338	-0.7000255698729104	0.0	0.9873075144164082	-0.9152342436931825	0.0	1.061347532412055	-0.9806595722423825	0.0	1.044907165730872	-0.9856808122248102	0.0	0.9654003231260299	-0.9426686926564019	0.0	0.9875520920112988	-0.4611091485013165	0.0	1.0088433737396008	-0.6912506965318684	0.0	0.983959226251028	-0.9020202641096661	0.0	1.0600090054150078	-0.9657560752670082	0.0	1.0476157353815885	-0.9553142879710596	0.0	0.9580620441149645	-0.9265380579147552	0.0	1.0530112281859247	-0.12476920082544322	0.0	1.1078488214835904	-0.04230208925405062	0.0	1.1305118406214743	-0.10622097169765762	0.0	1.052321120866357	-0.15157493874425487	0.0	1.173297559094526	-0.1019462985870799	0.0	1.2269092002135786	-0.04091614489979657	0.0	0.9960015028871626	-0.15334460512661183	0.0	1.129623163135532	-0.15982002404039203	0.0	1.210054585460583	-0.06579809052326846	0.0
